<mxfile host="drawio-plugin" modified="2023-10-11T10:40:30.665Z" agent="5.0 (Macintosh; Intel Mac OS X 10_15_7) AppleWebKit/537.36 (KHTML, like Gecko) Chrome/104.0.5112.102 Safari/537.36" etag="z6_SjpUyY84KDoGkYZ23" version="20.5.3" type="embed"><diagram id="_C3DZIL6yvxOB1QIjyHC" name="High Level Design"><mxGraphModel dx="1837" dy="899" grid="1" gridSize="10" guides="1" tooltips="1" connect="1" arrows="1" fold="1" page="1" pageScale="1" pageWidth="827" pageHeight="1169" math="0" shadow="0"><root><mxCell id="0"/><mxCell id="1" parent="0"/><mxCell id="rM7sO5fKTh4x9L8l7hMn-8" value="" style="rounded=1;whiteSpace=wrap;html=1;" parent="1" vertex="1"><mxGeometry x="-574" y="150" width="274" height="90" as="geometry"/></mxCell><mxCell id="rM7sO5fKTh4x9L8l7hMn-33" style="edgeStyle=orthogonalEdgeStyle;rounded=0;orthogonalLoop=1;jettySize=auto;html=1;exitX=0.5;exitY=1;exitDx=0;exitDy=0;entryX=0.196;entryY=-0.027;entryDx=0;entryDy=0;entryPerimeter=0;" parent="1" source="rM7sO5fKTh4x9L8l7hMn-6" target="rM7sO5fKTh4x9L8l7hMn-16" edge="1"><mxGeometry relative="1" as="geometry"/></mxCell><mxCell id="4" value="REST" style="edgeLabel;html=1;align=center;verticalAlign=middle;resizable=0;points=[];" parent="rM7sO5fKTh4x9L8l7hMn-33" vertex="1" connectable="0"><mxGeometry x="0.0323" y="-1" relative="1" as="geometry"><mxPoint as="offset"/></mxGeometry></mxCell><mxCell id="rM7sO5fKTh4x9L8l7hMn-6" value="" style="shape=image;verticalLabelPosition=bottom;labelBackgroundColor=default;verticalAlign=top;aspect=fixed;imageAspect=0;image=https://www.blueberry.io/static/media/services-react.2a485c25.png;" parent="1" vertex="1"><mxGeometry x="-574" y="150" width="106.61" height="90" as="geometry"/></mxCell><mxCell id="rM7sO5fKTh4x9L8l7hMn-11" value="" style="shape=cylinder3;whiteSpace=wrap;html=1;boundedLbl=1;backgroundOutline=1;size=15;" parent="1" vertex="1"><mxGeometry x="-499" y="750" width="130" height="160" as="geometry"/></mxCell><mxCell id="rM7sO5fKTh4x9L8l7hMn-12" value="&lt;h1&gt;Frontend&lt;/h1&gt;&lt;p&gt;React Native (Expo) frontend app which sends score updates to spring boot microservice via REST.&lt;/p&gt;" style="text;html=1;strokeColor=none;fillColor=none;spacing=5;spacingTop=-20;whiteSpace=wrap;overflow=hidden;rounded=0;" parent="1" vertex="1"><mxGeometry x="-770" y="150" width="190" height="120" as="geometry"/></mxCell><mxCell id="rM7sO5fKTh4x9L8l7hMn-13" value="Cricapp Design" style="text;strokeColor=none;fillColor=none;html=1;fontSize=24;fontStyle=1;verticalAlign=middle;align=center;" parent="1" vertex="1"><mxGeometry x="-450" y="40" width="100" height="40" as="geometry"/></mxCell><mxCell id="rM7sO5fKTh4x9L8l7hMn-34" style="edgeStyle=orthogonalEdgeStyle;rounded=0;orthogonalLoop=1;jettySize=auto;html=1;exitX=1;exitY=0.5;exitDx=0;exitDy=0;exitPerimeter=0;entryX=0.683;entryY=1.026;entryDx=0;entryDy=0;entryPerimeter=0;" parent="1" source="rM7sO5fKTh4x9L8l7hMn-15" target="rM7sO5fKTh4x9L8l7hMn-8" edge="1"><mxGeometry relative="1" as="geometry"/></mxCell><mxCell id="rM7sO5fKTh4x9L8l7hMn-35" style="edgeStyle=orthogonalEdgeStyle;rounded=0;orthogonalLoop=1;jettySize=auto;html=1;exitX=0.635;exitY=0.001;exitDx=0;exitDy=0;exitPerimeter=0;entryX=0;entryY=0.5;entryDx=30;entryDy=0;entryPerimeter=0;" parent="1" source="rM7sO5fKTh4x9L8l7hMn-16" target="rM7sO5fKTh4x9L8l7hMn-15" edge="1"><mxGeometry relative="1" as="geometry"/></mxCell><mxCell id="rM7sO5fKTh4x9L8l7hMn-15" value="" style="html=1;shadow=0;dashed=0;align=center;verticalAlign=middle;shape=mxgraph.arrows2.arrow;dy=0;dx=30;notch=30;rotation=-90;" parent="1" vertex="1"><mxGeometry x="-491" y="340" width="210" height="115" as="geometry"/></mxCell><mxCell id="rM7sO5fKTh4x9L8l7hMn-10" value="" style="shape=image;verticalLabelPosition=bottom;labelBackgroundColor=default;verticalAlign=top;aspect=fixed;imageAspect=0;image=https://vmssoftware.com/images/intro/product/librdkafka.png;" parent="1" vertex="1"><mxGeometry x="-425.5" y="354.5" width="79" height="86" as="geometry"/></mxCell><mxCell id="5" style="edgeStyle=orthogonalEdgeStyle;rounded=0;orthogonalLoop=1;jettySize=auto;html=1;exitX=0.5;exitY=1;exitDx=0;exitDy=0;entryX=0.554;entryY=0.006;entryDx=0;entryDy=0;entryPerimeter=0;" parent="1" source="rM7sO5fKTh4x9L8l7hMn-16" target="rM7sO5fKTh4x9L8l7hMn-11" edge="1"><mxGeometry relative="1" as="geometry"/></mxCell><mxCell id="rM7sO5fKTh4x9L8l7hMn-16" value="" style="rounded=1;whiteSpace=wrap;html=1;" parent="1" vertex="1"><mxGeometry x="-580" y="550" width="306" height="120" as="geometry"/></mxCell><mxCell id="rM7sO5fKTh4x9L8l7hMn-18" value="" style="shape=image;verticalLabelPosition=bottom;labelBackgroundColor=default;verticalAlign=top;aspect=fixed;imageAspect=0;image=https://cdn.icon-icons.com/icons2/2415/PNG/512/postgresql_original_wordmark_logo_icon_146392.png;" parent="1" vertex="1"><mxGeometry x="-483" y="790" width="102" height="102" as="geometry"/></mxCell><mxCell id="rM7sO5fKTh4x9L8l7hMn-24" value="" style="shape=image;verticalLabelPosition=bottom;labelBackgroundColor=default;verticalAlign=top;aspect=fixed;imageAspect=0;image=https://trellat.es/wp-content/uploads/spring-boot-logo.png;" parent="1" vertex="1"><mxGeometry x="-381" y="570" width="90" height="90" as="geometry"/></mxCell><mxCell id="rM7sO5fKTh4x9L8l7hMn-26" value="&lt;h1&gt;Backend&lt;/h1&gt;&lt;div&gt;Backend receives score updates from frontend via REST and processes it and sends back an update via kafka.&lt;/div&gt;" style="text;html=1;strokeColor=none;fillColor=none;spacing=5;spacingTop=-20;whiteSpace=wrap;overflow=hidden;rounded=0;" parent="1" vertex="1"><mxGeometry x="-260" y="550" width="190" height="120" as="geometry"/></mxCell><mxCell id="rM7sO5fKTh4x9L8l7hMn-32" value="Backend&lt;br&gt;(Spring boot)" style="text;html=1;strokeColor=none;fillColor=none;align=center;verticalAlign=middle;whiteSpace=wrap;rounded=0;" parent="1" vertex="1"><mxGeometry x="-570" y="560" width="80" height="30" as="geometry"/></mxCell><mxCell id="2" value="&lt;h1&gt;Kafka&lt;/h1&gt;&lt;p&gt;Sends back score update to frontend.&lt;/p&gt;" style="text;html=1;strokeColor=none;fillColor=none;spacing=5;spacingTop=-20;whiteSpace=wrap;overflow=hidden;rounded=0;" parent="1" vertex="1"><mxGeometry x="-320" y="321" width="190" height="120" as="geometry"/></mxCell><mxCell id="3" value="&lt;h1&gt;Database&lt;/h1&gt;&lt;p&gt;Microservice will write to the database after every over.&lt;/p&gt;" style="text;html=1;strokeColor=none;fillColor=none;spacing=5;spacingTop=-20;whiteSpace=wrap;overflow=hidden;rounded=0;" parent="1" vertex="1"><mxGeometry x="-700" y="760" width="190" height="120" as="geometry"/></mxCell><mxCell id="XMi_yxSUYZ_WA81ib77_-7" value="" style="shape=image;verticalLabelPosition=bottom;labelBackgroundColor=default;verticalAlign=top;aspect=fixed;imageAspect=0;image=https://cdn.icon-icons.com/icons2/2389/PNG/512/expo_logo_icon_145293.png;" parent="1" vertex="1"><mxGeometry x="-483" y="157" width="73" height="73" as="geometry"/></mxCell><mxCell id="XMi_yxSUYZ_WA81ib77_-8" value="" style="shape=image;verticalLabelPosition=bottom;labelBackgroundColor=default;verticalAlign=top;aspect=fixed;imageAspect=0;image=https://miro.medium.com/v2/resize:fit:400/1*1-13QxXfUE1mdrK_MfqonQ.png;" parent="1" vertex="1"><mxGeometry x="-450" y="560" width="90" height="90" as="geometry"/></mxCell></root></mxGraphModel></diagram></mxfile>